# xmcd
#
# Track frame offsets:
#	150
#	12723
#	31624
#	48731
#	69328
#	82556
#	101034
#	122115
#	140678
#	164289
#	190409
#	205134
#	223725
#	240208
#
# Disc length: 3376 seconds
#
# Revision: 0
# Processed by: cddbd v1.5.2PL0 Copyright (c) Steve Scherf et al.
# Submitted via: EZCDAudioConverter 1.3.4.1
#
DISCID=be0d2e0e
DTITLE=Joe Bataan - Salsoul
DYEAR=1900
DGENRE=
TTITLE0=Mi Nube
TTITLE1=Muchacho Ordinario
TTITLE2=When Sunny Gets Blue Mambo
TTITLE3=Mujer Mia
TTITLE4=Fin
TTITLE5=Latin Strut
TTITLE6=Johnny
TTITLE7=Peace, Friendship, Solidarity
TTITLE8=Aftershower Funk
TTITLE9=Continental Square Dance
TTITLE10=Latin Strut [Mono Single]
TTITLE11=Peace, Friendship, Solidarity [Mono Single]
TTITLE12=Aftershower Funk [Mono Single]
TTITLE13=Fin [Mono Single]
EXTD=
EXTT0=
EXTT1=
EXTT2=
EXTT3=
EXTT4=
EXTT5=
EXTT6=
EXTT7=
EXTT8=
EXTT9=
EXTT10=
EXTT11=
EXTT12=
EXTT13=
PLAYORDER=
